<svg width="810" height="195" viewBox="0 0 810 195" fill="none" xmlns="http://www.w3.org/2000/svg">
<path d="M92.6328 157.477C87.1953 157.477 82.1094 156.961 77.375 155.93C72.6875 154.852 67.9766 153.281 63.2422 151.219L63.0312 131.109H75.7578L78.4297 142.078C80.4922 143.016 82.5781 143.719 84.6875 144.188C86.7969 144.656 89.1641 144.891 91.7891 144.891C96.8516 144.891 100.414 144 102.477 142.219C104.586 140.438 105.641 138.234 105.641 135.609C105.641 133.125 104.539 130.969 102.336 129.141C100.18 127.312 96.0312 125.742 89.8906 124.43C80.75 122.461 74.0469 119.602 69.7812 115.852C65.5156 112.055 63.3828 107.133 63.3828 101.086C63.3828 96.9609 64.4844 93.1875 66.6875 89.7656C68.9375 86.3438 72.2188 83.625 76.5312 81.6094C80.8906 79.5938 86.2344 78.5859 92.5625 78.5859C98.3281 78.5859 103.438 79.1953 107.891 80.4141C112.391 81.5859 116.211 83.1562 119.352 85.125L119.844 104.461H107.188L105.008 94.4062C101.961 92.25 98.0703 91.1719 93.3359 91.1719C89.4453 91.1719 86.375 92.0391 84.125 93.7734C81.875 95.4609 80.75 97.5938 80.75 100.172C80.75 102.422 81.6406 104.367 83.4219 106.008C85.2031 107.648 89.1406 109.148 95.2344 110.508C105.125 112.805 112.203 115.805 116.469 119.508C120.734 123.211 122.867 128.109 122.867 134.203C122.867 141 120.383 146.578 115.414 150.938C110.445 155.297 102.852 157.477 92.6328 157.477ZM168.359 157.477C161.234 157.477 155.047 155.859 149.797 152.625C144.594 149.344 140.562 144.844 137.703 139.125C134.891 133.359 133.484 126.727 133.484 119.227V116.766C133.484 109.406 134.891 102.844 137.703 97.0781C140.516 91.3125 144.523 86.7891 149.727 83.5078C154.977 80.1797 161.164 78.5156 168.289 78.5156C174.805 78.5156 180.477 79.5703 185.305 81.6797C190.133 83.7422 194.094 86.3203 197.188 89.4141L197.258 109.734H183.758L181.156 96.3047C179.844 94.9453 178.18 93.8672 176.164 93.0703C174.148 92.2266 171.945 91.8047 169.555 91.8047C163.695 91.8047 159.172 94.125 155.984 98.7656C152.797 103.359 151.203 109.359 151.203 116.766V119.227C151.203 127.289 152.797 133.406 155.984 137.578C159.219 141.75 163.367 143.836 168.43 143.836C172.461 143.836 175.766 142.734 178.344 140.531C180.922 138.328 182.609 135.281 183.406 131.391H198.734L198.945 131.812C198.102 139.266 195.219 145.406 190.297 150.234C185.422 155.062 178.109 157.477 168.359 157.477ZM207.453 156V145.172L218 143.062V59.3203L206.82 57.2109V46.3125H235.648V89.7656C238.18 86.2031 241.25 83.4375 244.859 81.4688C248.516 79.5 252.641 78.5156 257.234 78.5156C265.062 78.5156 271.227 81.0234 275.727 86.0391C280.227 91.0078 282.477 98.6953 282.477 109.102V143.062L292.953 145.172V156H254.773V145.172L264.758 143.062V108.961C264.758 103.148 263.586 98.9531 261.242 96.375C258.898 93.7969 255.453 92.5078 250.906 92.5078C247.672 92.5078 244.742 93.2344 242.117 94.6875C239.492 96.0938 237.336 98.0859 235.648 100.664V143.062L245.633 145.172V156H207.453ZM335.422 157.477C328.109 157.477 321.828 155.836 316.578 152.555C311.328 149.227 307.297 144.656 304.484 138.844C301.672 133.031 300.266 126.328 300.266 118.734V117.258C300.266 109.711 301.672 103.031 304.484 97.2188C307.297 91.4062 311.328 86.8359 316.578 83.5078C321.828 80.1797 328.062 78.5156 335.281 78.5156C342.594 78.5156 348.875 80.1797 354.125 83.5078C359.375 86.7891 363.406 91.3594 366.219 97.2188C369.031 103.031 370.438 109.711 370.438 117.258V118.734C370.438 126.375 369.031 133.102 366.219 138.914C363.406 144.727 359.375 149.273 354.125 152.555C348.922 155.836 342.688 157.477 335.422 157.477ZM335.422 143.836C341.281 143.836 345.641 141.516 348.5 136.875C351.359 132.188 352.789 126.141 352.789 118.734V117.258C352.789 109.992 351.336 104.016 348.43 99.3281C345.57 94.5938 341.188 92.2266 335.281 92.2266C329.422 92.2266 325.062 94.5938 322.203 99.3281C319.391 104.016 317.984 109.992 317.984 117.258V118.734C317.984 126.141 319.391 132.188 322.203 136.875C325.062 141.516 329.469 143.836 335.422 143.836ZM417.266 157.477C409.953 157.477 403.672 155.836 398.422 152.555C393.172 149.227 389.141 144.656 386.328 138.844C383.516 133.031 382.109 126.328 382.109 118.734V117.258C382.109 109.711 383.516 103.031 386.328 97.2188C389.141 91.4062 393.172 86.8359 398.422 83.5078C403.672 80.1797 409.906 78.5156 417.125 78.5156C424.438 78.5156 430.719 80.1797 435.969 83.5078C441.219 86.7891 445.25 91.3594 448.062 97.2188C450.875 103.031 452.281 109.711 452.281 117.258V118.734C452.281 126.375 450.875 133.102 448.062 138.914C445.25 144.727 441.219 149.273 435.969 152.555C430.766 155.836 424.531 157.477 417.266 157.477ZM417.266 143.836C423.125 143.836 427.484 141.516 430.344 136.875C433.203 132.188 434.633 126.141 434.633 118.734V117.258C434.633 109.992 433.18 104.016 430.273 99.3281C427.414 94.5938 423.031 92.2266 417.125 92.2266C411.266 92.2266 406.906 94.5938 404.047 99.3281C401.234 104.016 399.828 109.992 399.828 117.258V118.734C399.828 126.141 401.234 132.188 404.047 136.875C406.906 141.516 411.312 143.836 417.266 143.836ZM459.734 156V145.172L470.352 143.062V59.3203L459.102 57.2109V46.3125H488.07V143.062L498.617 145.172V156H459.734ZM531.805 157.477C524.07 157.477 518.047 155.484 513.734 151.5C509.422 147.516 507.266 142.031 507.266 135.047C507.266 127.875 510.172 122.062 515.984 117.609C521.844 113.156 530.234 110.93 541.156 110.93H552.758V104.531C552.758 100.5 551.539 97.2891 549.102 94.8984C546.711 92.5078 543.219 91.3125 538.625 91.3125C536 91.3125 533.68 91.6406 531.664 92.2969C529.648 92.9062 527.844 93.7969 526.25 94.9688L524.703 105.234H511.625L511.484 86.4609C515.188 83.9766 519.336 82.0312 523.93 80.625C528.57 79.2188 533.703 78.5156 539.328 78.5156C548.984 78.5156 556.578 80.7891 562.109 85.3359C567.688 89.8828 570.477 96.3516 570.477 104.742V138.281C570.477 139.312 570.477 140.32 570.477 141.305C570.523 142.242 570.594 143.203 570.688 144.188L578.422 145.172V156H555.289C554.82 154.359 554.375 152.766 553.953 151.219C553.578 149.672 553.297 148.125 553.109 146.578C550.578 149.766 547.508 152.391 543.898 154.453C540.289 156.469 536.258 157.477 531.805 157.477ZM535.812 143.766C539.422 143.766 542.75 142.945 545.797 141.305C548.891 139.617 551.211 137.508 552.758 134.977V122.25H540.945C535.648 122.25 531.641 123.492 528.922 125.977C526.25 128.414 524.914 131.273 524.914 134.555C524.914 140.695 528.547 143.766 535.812 143.766ZM586.086 185.25V174.352L596.352 172.242V92.9297L585.172 90.8203V79.9219H612.242L613.367 88.9219C615.758 85.5938 618.617 83.0391 621.945 81.2578C625.32 79.4297 629.305 78.5156 633.898 78.5156C640.086 78.5156 645.383 80.2031 649.789 83.5781C654.195 86.9531 657.547 91.6641 659.844 97.7109C662.188 103.758 663.359 110.836 663.359 118.945V120.422C663.359 127.828 662.188 134.32 659.844 139.898C657.5 145.43 654.125 149.742 649.719 152.836C645.312 155.93 640.039 157.477 633.898 157.477C625.367 157.477 618.734 154.477 614 148.477V172.242L624.828 174.352V185.25H586.086ZM628.555 143.836C634.367 143.836 638.656 141.703 641.422 137.438C644.234 133.125 645.641 127.453 645.641 120.422V118.945C645.641 111.117 644.211 104.766 641.352 99.8906C638.539 94.9688 634.227 92.5078 628.414 92.5078C625.133 92.5078 622.273 93.2578 619.836 94.7578C617.398 96.2109 615.453 98.2734 614 100.945V135.82C617.047 141.164 621.898 143.836 628.555 143.836ZM671.164 185.25V174.352L681.43 172.242V92.9297L670.25 90.8203V79.9219H697.32L698.445 88.9219C700.836 85.5938 703.695 83.0391 707.023 81.2578C710.398 79.4297 714.383 78.5156 718.977 78.5156C725.164 78.5156 730.461 80.2031 734.867 83.5781C739.273 86.9531 742.625 91.6641 744.922 97.7109C747.266 103.758 748.438 110.836 748.438 118.945V120.422C748.438 127.828 747.266 134.32 744.922 139.898C742.578 145.43 739.203 149.742 734.797 152.836C730.391 155.93 725.117 157.477 718.977 157.477C710.445 157.477 703.812 154.477 699.078 148.477V172.242L709.906 174.352V185.25H671.164ZM713.633 143.836C719.445 143.836 723.734 141.703 726.5 137.438C729.312 133.125 730.719 127.453 730.719 120.422V118.945C730.719 111.117 729.289 104.766 726.43 99.8906C723.617 94.9688 719.305 92.5078 713.492 92.5078C710.211 92.5078 707.352 93.2578 704.914 94.7578C702.477 96.2109 700.531 98.2734 699.078 100.945V135.82C702.125 141.164 706.977 143.836 713.633 143.836Z" fill="white"/>
<g clip-path="url(#clip0)">
<path d="M100.481 27.4701L60.2416 25.6122C58.0488 25.511 55.9949 26.2586 54.3815 27.7451L24.7492 55.0342C22.2485 57.3367 24.1752 62.6303 27.5709 62.7867L34.5862 63.1105C34.0662 65.8398 34.2405 68.875 35.2496 71.9009C34.3852 73.2785 34.1525 75.2813 34.8884 77.3032C35.5556 79.1363 36.8283 80.4197 38.2118 81.0331L42.1246 101.732C42.4649 103.532 44.0035 104.798 45.2847 104.331L52.3121 101.774C53.5946 101.307 53.9597 99.3484 53.0633 97.7508L42.7556 79.3793C43.4211 78.0201 43.5711 76.2189 42.9039 74.3857C42.1878 72.4183 40.7784 71.0671 39.2796 70.5304C38.4451 67.9416 38.585 65.3332 39.5981 63.343L67.811 64.6463C69.1177 64.706 71.5092 64.5038 73.6711 62.5134L103.303 35.2243C105.805 32.9197 103.879 27.6277 100.481 27.4701V27.4701ZM76.7417 67.2867C73.7107 70.0769 70.3665 70.362 68.527 70.2766L47.607 69.3116L52.8534 89.2518C55.0413 95.263 67.5804 96.2165 80.8611 91.3827C94.1419 86.5489 103.134 77.7585 100.947 71.7473L92.1477 53.0982L76.7417 67.2867V67.2867Z" fill="#5FCE7E"/>
</g>
<defs>
<clipPath id="clip0">
<rect width="85.2995" height="92.6529" fill="white" transform="translate(13.0557 29.7877) rotate(-20)"/>
</clipPath>
</defs>
</svg>
